<?xml version="1.0" standalone="no"?>
<!DOCTYPE svg PUBLIC "-//W3C//DTD SVG 20010904//EN"
 "http://www.w3.org/TR/2001/REC-SVG-20010904/DTD/svg10.dtd">
<svg version="1.0" xmlns="http://www.w3.org/2000/svg"
 width="300.000000pt" height="75.000000pt" viewBox="0 0 300.000000 75.000000"
 preserveAspectRatio="xMidYMid meet">
<metadata>
Created by potrace 1.10, written by Peter Selinger 2001-2011
</metadata>
<g transform="translate(0.000000,75.000000) scale(0.100000,-0.100000)"
fill="#ffffff" stroke="none">
<path d="M0 375 l0 -375 1500 0 1500 0 0 375 0 375 -1500 0 -1500 0 0 -375z
m1580 215 c0 -23 -4 -30 -20 -30 -16 0 -20 7 -20 30 0 23 4 30 20 30 16 0 20
-7 20 -30z m-950 -27 l0 -48 61 3 c93 6 148 -27 149 -88 1 -24 2 -23 15 7 25
58 64 73 187 71 l108 -1 0 -46 1 -46 14 32 c8 18 29 42 47 53 28 18 45 21 111
17 l77 -4 0 49 c0 47 1 48 30 48 l30 0 0 -184 0 -183 -108 -1 c-123 -2 -162
13 -187 71 l-14 32 -1 -51 0 -51 -106 -1 c-120 -2 -153 9 -184 61 l-20 32 0
-47 c0 -47 -1 -48 -30 -48 l-30 0 0 94 c0 110 -9 126 -71 126 -65 0 -79 -23
-79 -130 l0 -90 -30 0 c-29 0 -30 1 -30 48 l-1 47 -14 -32 c-19 -44 -61 -63
-137 -63 -107 0 -168 61 -154 153 13 80 64 117 161 117 61 0 91 -11 117 -44
24 -29 22 -51 -6 -64 -20 -9 -26 -7 -45 19 -18 24 -29 29 -65 29 -59 0 -96
-29 -96 -76 0 -50 29 -74 90 -74 48 0 57 5 83 43 10 15 17 16 40 8 l27 -11 0
135 0 135 30 0 c29 0 30 -1 30 -47z m940 -207 c0 -147 -1 -156 -23 -181 -17
-20 -35 -28 -70 -32 -43 -5 -47 -4 -47 16 0 17 6 21 29 21 16 0 39 9 52 19 23
18 24 26 27 165 3 118 6 146 18 146 11 0 14 -27 14 -154z m281 117 c56 -64 47
-165 -20 -210 -45 -31 -132 -32 -179 -3 -42 26 -66 81 -58 133 14 88 58 120
160 115 62 -3 71 -7 97 -35z m99 27 c0 -7 6 -7 19 0 11 5 45 10 76 10 49 0 60
-4 86 -29 28 -29 29 -32 29 -135 0 -99 -1 -106 -20 -106 -19 0 -20 7 -20 97 0
116 -10 133 -77 133 -33 0 -50 -6 -68 -25 -23 -22 -25 -32 -25 -115 0 -83 -1
-90 -20 -90 -19 0 -20 7 -20 135 0 128 1 135 20 135 11 0 20 -5 20 -10z m476
-23 c26 -24 37 -43 41 -75 l6 -42 -127 0 c-139 0 -151 -6 -101 -55 20 -21 34
-25 80 -25 46 0 60 4 81 25 43 43 74 25 36 -21 -26 -33 -56 -44 -117 -44 -69
0 -107 19 -129 64 -30 64 -14 143 39 184 22 17 41 22 91 22 59 0 67 -3 100
-33z m253 18 c44 -22 59 -85 21 -85 -11 0 -20 6 -20 14 0 26 -30 46 -71 46
-47 0 -79 -14 -79 -35 0 -20 25 -31 94 -44 72 -13 96 -33 96 -77 0 -51 -37
-74 -117 -74 -58 0 -68 3 -94 29 -35 35 -40 81 -9 81 13 0 20 -7 20 -18 0 -11
9 -27 19 -36 25 -23 119 -19 135 6 16 26 -2 38 -81 54 -100 21 -133 75 -78
129 20 21 34 25 80 25 31 0 69 -7 84 -15z"/>
<path d="M1252 453 c-22 -9 -44 -63 -37 -94 18 -83 160 -79 181 5 7 28 -18 81
-41 90 -19 7 -84 7 -103 -1z"/>
<path d="M929 431 c-17 -13 -23 -29 -23 -56 0 -48 31 -75 84 -75 52 0 68 8 86
41 18 35 10 74 -19 94 -30 21 -100 19 -128 -4z"/>
<path d="M1663 446 c-23 -20 -28 -32 -28 -71 0 -64 35 -95 105 -95 70 0 105
31 105 95 0 39 -5 51 -28 71 -39 34 -115 34 -154 0z"/>
<path d="M2249 441 c-16 -16 -29 -34 -29 -40 0 -7 37 -11 105 -11 68 0 105 4
105 11 0 6 -13 24 -29 40 -24 24 -38 29 -76 29 -38 0 -52 -5 -76 -29z"/>
</g>
</svg>
