<?xml version="1.0" standalone="no"?>
<!DOCTYPE svg PUBLIC "-//W3C//DTD SVG 20010904//EN"
 "http://www.w3.org/TR/2001/REC-SVG-20010904/DTD/svg10.dtd">
<svg version="1.0" xmlns="http://www.w3.org/2000/svg"
 width="300.000000pt" height="300.000000pt" viewBox="0 0 300.000000 300.000000"
 preserveAspectRatio="xMidYMid meet">
<metadata>
Created by potrace 1.10, written by Peter Selinger 2001-2011
</metadata>
<g transform="translate(0.000000,300.000000) scale(0.100000,-0.100000)">

<path d="M1375 2986 c-37 -17 -80 -62 -94 -99 -7 -19 -11 -221 -11 -600 0
-315 -4 -577 -8 -583 -28 -42 -84 -35 -102 12 -6 15 -10 215 -10 476 0 436 -1
451 -21 487 -37 66 -110 100 -184 87 -37 -7 -97 -53 -118 -90 -9 -16 -13 -209
-17 -769 l-5 -748 -134 181 c-162 220 -181 235 -291 235 -65 0 -82 -4 -113
-25 -73 -49 -108 -171 -73 -254 19 -45 567 -877 627 -951 181 -224 476 -345
837 -345 457 0 752 205 854 593 21 81 22 97 25 929 3 613 1 859 -7 889 -39
145 -238 169 -314 39 -20 -33 -21 -54 -26 -453 -5 -450 -4 -436 -57 -437 -54
0 -53 -16 -53 593 0 356 -4 576 -10 599 -22 78 -87 128 -167 128 -66 0 -120
-33 -150 -89 l-23 -44 0 -519 c0 -505 -1 -519 -20 -538 -25 -25 -41 -25 -71
-1 l-24 19 -2 564 c-1 309 -4 578 -7 596 -15 97 -138 159 -231 118z"/>
</g>
</svg>
