<?xml version="1.0" encoding="iso-8859-1"?>

<svg version="1.1" id="Layer_1" xmlns="http://www.w3.org/2000/svg"
 x="0px" y="0px" viewBox="0 0 300.000000 236.000000"
 preserveAspectRatio="xMidYMid meet">
<g transform="translate(0.000000,236.000000) scale(0.100000,-0.100000)"
 stroke="none">
<path d="M2240 2348 c-128 -9 -254 -43 -370 -100 -66 -33 -104 -61 -171 -128
-95 -93 -144 -176 -174 -291 -24 -90 -17 -272 13 -349 79 -204 280 -369 586
-481 298 -110 404 -219 366 -378 -35 -145 -167 -210 -405 -198 -129 7 -266 39
-391 93 -47 20 -87 35 -88 33 -5 -5 -96 -383 -96 -396 0 -18 137 -73 257 -103
271 -70 617 -50 830 49 201 94 332 248 378 446 8 33 15 107 15 165 0 330 -162
520 -591 691 -274 109 -359 172 -384 286 -10 49 18 132 57 170 60 59 118 77
255 81 143 5 230 -11 366 -65 49 -19 90 -33 92 -31 1 1 29 94 62 205 l60 202
-61 24 c-146 59 -393 89 -606 75z"/>
<path d="M640 1527 c0 -517 -4 -793 -11 -833 -24 -132 -94 -220 -199 -251 -65
-19 -246 -13 -323 10 -26 8 -47 14 -48 14 -7 -16 -54 -404 -49 -410 4 -4 52
-17 106 -29 135 -28 363 -31 484 -5 353 76 535 308 570 727 5 63 10 438 10
833 l0 717 -270 0 -270 0 0 -773z"/>
</g>
</svg>
